<svg xmlns="http://www.w3.org/2000/svg" viewBox="0 0 284 73"><path d="M25.342 64.199a13.52 13.52 0 0 1-14.48-5.37 12.49 12.49 0 0 1-2.137-9.442c.099-.537.235-1.067.408-1.586l.319-.975.872.638a21.903 21.903 0 0 0 6.643 3.318l.632.192-.061.632a3.814 3.814 0 0 0 .687 2.522 4.07 4.07 0 0 0 4.361 1.62 3.74 3.74 0 0 0 1.042-.456l16.988-10.825a3.537 3.537 0 0 0 1.593-2.364 3.78 3.78 0 0 0-.642-2.848 4.072 4.072 0 0 0-4.36-1.619 3.72 3.72 0 0 0-1.043.456l-6.482 4.133a12.416 12.416 0 0 1-3.449 1.516 13.52 13.52 0 0 1-14.481-5.367 12.49 12.49 0 0 1-2.133-9.445 11.72 11.72 0 0 1 5.294-7.847l16.985-10.827a12.363 12.363 0 0 1 3.449-1.517 13.52 13.52 0 0 1 14.48 5.37 12.493 12.493 0 0 1 2.137 9.442c-.1.538-.236 1.068-.407 1.586l-.32.976-.869-.638a21.895 21.895 0 0 0-6.646-3.322l-.632-.191.061-.629a3.82 3.82 0 0 0-.687-2.526 4.07 4.07 0 0 0-4.361-1.616 3.71 3.71 0 0 0-1.042.455L20.073 28.47a3.534 3.534 0 0 0-1.593 2.365 3.77 3.77 0 0 0 .642 2.847 4.074 4.074 0 0 0 4.361 1.62 3.78 3.78 0 0 0 1.045-.459l6.479-4.133a12.35 12.35 0 0 1 3.449-1.513 13.52 13.52 0 0 1 14.481 5.366 12.486 12.486 0 0 1 2.133 9.445 11.726 11.726 0 0 1-5.294 7.85L28.792 62.683a12.38 12.38 0 0 1-3.45 1.516M56.82 9.65C50.049-.044 36.672-2.916 27.002 3.247L10.014 14.072a19.493 19.493 0 0 0-8.801 13.052 20.53 20.53 0 0 0 2.024 13.177A19.53 19.53 0 0 0 .32 47.582a20.775 20.775 0 0 0 3.549 15.703c6.774 9.694 20.148 12.566 29.818 6.406l16.988-10.825a19.49 19.49 0 0 0 8.801-13.052 20.533 20.533 0 0 0-2.021-13.177 19.55 19.55 0 0 0 2.912-7.282A20.766 20.766 0 0 0 56.82 9.65z" fill="#00128c" fill-rule="nonzero"/><text x="64.233" y="58.044" font-family="Phosphate-Inline, Phosphate" font-size="64.795" fill="url(#A)">vicons</text><defs><linearGradient id="A" x1="78" y1="31.5" x2="236.25" y2="31.5" gradientUnits="userSpaceOnUse"><stop offset="0" stop-color="#00128c"/><stop offset=".8" stop-color="#009dc0"/><stop offset="1" stop-color="#00d1c1"/></linearGradient></defs></svg>
